<svg id="Capa_1" enable-background="new 0 0 512 512" height="512" viewBox="0 0 512 512" width="512" xmlns="http://www.w3.org/2000/svg"><g><g><g><path clip-rule="evenodd" d="m133.047 141.712-2.636-31.148c-.368-4.166-4.054-7.312-8.249-6.944l-68.514 5.782c-4.167.34-7.285 4.053-6.945 8.219l2.806 33.301 47.622 21.115z" fill="#e2e2e2" fill-rule="evenodd"/></g></g><g><g><path clip-rule="evenodd" d="m28.306 153.275 166.763-18.394 188.986-.028 87.024 21.256c22.677 5.527 33.421 7.511 33.421 43.561v236.228c0 11.45-9.383 20.803-20.835 20.803h-455.359c-11.452 0-20.806-9.353-20.806-20.803v-261.82c0-11.45 9.439-19.555 20.806-20.803z" fill="#8d9ba7" fill-rule="evenodd"/></g></g><g><g><path clip-rule="evenodd" d="m430.601 294.105c20.665 0 37.417 16.778 37.417 37.439s-16.753 37.411-37.417 37.411c-20.665 0-37.417-16.75-37.417-37.411s16.752-37.439 37.417-37.439z" fill="#ffd86c" fill-rule="evenodd"/></g></g><g><g><path clip-rule="evenodd" d="m388.733 283.109h-109.163-.028-109.163c-7.228 0-12.954-5.923-13.124-13.122-1.928-77.146 28.602-169.54 54.51-212.364 3.742-6.178 6.548-13.122 16.384-13.122h102.813c9.836 0 12.643 6.944 16.384 13.122 25.88 42.824 56.41 135.218 54.51 212.364-.197 7.198-5.923 13.122-13.123 13.122z" fill="#cecece" fill-rule="evenodd"/></g></g><g><g><path clip-rule="evenodd" d="m279.542 163.79c83.877 0 151.881 67.992 151.881 151.855s-68.004 151.855-151.881 151.855-151.881-67.992-151.881-151.855 68.003-151.855 151.881-151.855z" fill="#e2e2e2" fill-rule="evenodd"/></g></g><g><g><path clip-rule="evenodd" d="m79.812 208.995c0-6.547-6.095-11.904-13.578-11.904h-58.734v210.692h58.734c7.483 0 13.578-5.385 13.578-11.932z" fill="#cecece" fill-rule="evenodd"/></g></g><g><g><path clip-rule="evenodd" d="m279.542 208.287c59.329 0 107.405 48.068 107.405 107.358 0 59.319-48.076 107.387-107.405 107.387-59.301 0-107.377-48.068-107.377-107.387 0-59.291 48.076-107.358 107.377-107.358z" fill="#c8effe" fill-rule="evenodd"/></g></g><g><g><path clip-rule="evenodd" d="m166.269 182.779c-2.75 13.066-4.989 26.358-6.576 39.565 27.808-35.626 71.15-58.554 119.849-58.554 31.606 0 60.945 9.636 85.238 26.159 13.153 8.928 24.86 19.896 34.611 32.395-2.013-16.892-5.102-33.897-8.986-50.392-2.976-12.754-6.406-25.196-10.148-37.099-9.865-31.431-21.827-58.894-32.91-77.231-3.742-6.178-6.548-13.122-16.384-13.122h-17.66c14.797 16.24 32.825 63.712 43.314 107.528 3.26 13.632-.737 5.612-16.781-2.211-30.729-15.02-115.4-24.656-173.567 32.962z" fill="#bebebe" fill-rule="evenodd"/></g></g><g><g><path clip-rule="evenodd" d="m381.93 283.109c-13.805-43.391-54.425-74.822-102.388-74.822-9.723 0-19.162 1.275-28.12 3.713 39.77 6.065 72.369 33.982 85.181 71.109 3.798 10.968 5.868 22.758 5.868 35.03 0 49.57-33.619 91.289-79.285 103.646 5.358.822 10.8 1.247 16.356 1.247 59.329 0 107.405-48.068 107.405-107.387 0-11.337-1.758-22.276-5.017-32.536z" fill="#99e6fc" fill-rule="evenodd"/></g></g><g><g><path clip-rule="evenodd" d="m429.92 294.134c-3.798-26.811-14.627-51.383-30.529-71.79-9.751-12.499-21.458-23.467-34.611-32.395-24.293-16.523-53.632-26.159-85.238-26.159-5.868 0-11.65.34-17.348.992 64.602 7.34 116.901 55.21 130.848 117.561 2.409 10.713 3.685 21.88 3.685 33.302 0 8.814-.765 17.458-2.211 25.848-9.014 52.574-45.071 95.937-93.345 115.209-12.274 4.931-25.342 8.276-38.977 9.835 5.698.624 11.48.964 17.348.964 19.928 0 38.92-3.826 56.353-10.798 39.884-15.928 71.433-48.294 86.259-88.71 6.009-16.325 9.269-33.953 9.269-52.347 0-7.313-.511-14.483-1.503-21.512z" fill="#cecece" fill-rule="evenodd"/></g></g><g><g><path clip-rule="evenodd" d="m504.5 435.899v-236.228c0-36.051-10.743-38.035-33.421-43.561l-23.244-5.697c20.466 5.045 30.189 8.503 30.189 42.824v236.2c0 11.45-4.309 27.265-16.498 27.265h22.139c11.452 0 20.835-9.353 20.835-20.803z" fill="#798c98" fill-rule="evenodd"/></g></g><g><g><path clip-rule="evenodd" d="m79.812 394.18v-183.513-1.672c0-6.547-6.095-11.904-13.578-11.904h-35.433c7.483 0 13.578 5.357 13.578 11.904v186.857c0 6.547-6.095 11.932-13.578 11.932h35.433c7.483 0 13.578-5.385 13.578-11.932z" fill="#bebebe" fill-rule="evenodd"/></g></g><g><g><path clip-rule="evenodd" d="m133.047 141.712-2.636-31.148c-.368-4.166-4.054-7.312-8.249-6.944l-26.759 2.239c4.167-.34 7.88 2.777 8.221 6.972l2.636 31.148-.935.794z" fill="#cecece" fill-rule="evenodd"/></g></g><g><g><path d="m231.693 122.063c.834 0 1.682-.14 2.513-.436 26.07-9.269 67.477-9.319 90.419-.106 3.843 1.543 8.21-.322 9.754-4.166 1.543-3.844-.321-8.211-4.166-9.754-26.686-10.715-71.065-10.762-101.033-.106-3.903 1.388-5.941 5.676-4.554 9.579 1.093 3.072 3.982 4.989 7.067 4.989z"/></g><g><path d="m310.919 303.313-37.786 37.78c-2.929 2.929-2.93 7.677-.001 10.606 1.464 1.465 3.384 2.197 5.304 2.197 1.919 0 3.838-.732 5.303-2.196l37.786-37.78c2.929-2.929 2.93-7.677.001-10.606-2.928-2.93-7.677-2.93-10.607-.001z"/></g><g><path d="m303.526 268.652c-2.928-2.93-7.677-2.93-10.606-.001l-61.087 61.076c-2.929 2.929-2.93 7.677-.001 10.606 1.464 1.465 3.384 2.197 5.304 2.197 1.919 0 3.838-.732 5.303-2.196l61.087-61.076c2.928-2.928 2.929-7.677 0-10.606z"/></g><g><path d="m279.542 200.787c-63.343 0-114.877 51.525-114.877 114.858 0 63.349 51.534 114.887 114.877 114.887 63.359 0 114.905-51.538 114.905-114.887 0-63.333-51.546-114.858-114.905-114.858zm0 214.745c-55.072 0-99.877-44.809-99.877-99.887 0-55.062 44.805-99.858 99.877-99.858 55.088 0 99.905 44.796 99.905 99.858 0 55.078-44.817 99.887-99.905 99.887z"/></g><g><path d="m474.008 149.104-88.173-21.536c-.022-.005-.045-.007-.067-.012-10.009-30.667-21.704-56.758-32.007-73.819-.391-.646-.771-1.301-1.151-1.956-3.419-5.885-8.585-14.781-21.648-14.781h-102.813c-13.062 0-18.229 8.896-21.648 14.782-.38.654-.76 1.309-1.154 1.959-10.552 17.45-22.578 44.391-32.755 76.063l-32.721 3.612-1.99-23.513c-.735-8.312-8.076-14.48-16.351-13.756l-68.501 5.781c-8.289.681-14.479 7.993-13.8 16.324l2.194 26.031-13.935 1.538c-15.927 1.746-27.488 13.631-27.488 28.257v23.014 210.692 28.115c0 15.606 12.698 28.303 28.306 28.303h193.569c17.893 6.967 37.34 10.798 57.667 10.798s39.774-3.831 57.667-10.798h74.513c4.142 0 7.5-3.358 7.5-7.5s-3.358-7.5-7.5-7.5h-45.338c26.872-17.527 48.151-42.933 60.538-72.916 1.227.101 2.455.17 3.679.17 24.768 0 44.917-20.147 44.917-44.911 0-22.835-17.115-41.733-39.183-44.561-4.557-24.984-14.962-47.951-29.738-67.433-3.206-25.987-8.843-51.669-15.69-75.304l78.397 19.149 1.16.282c9.767 2.375 16.824 4.092 20.623 8.172 4.09 4.393 5.914 12.974 5.914 27.82v236.228c0 7.335-5.982 13.303-13.335 13.303h-37.332c-4.142 0-7.5 3.358-7.5 7.5s3.358 7.5 7.5 7.5h37.332c15.624 0 28.335-12.697 28.335-28.303v-236.227c-.001-39.488-13.028-44.496-37.993-50.567zm-288.791-9.578c.134-.333.238-.679.324-1.031 10.027-32.178 22.102-59.562 32.64-76.988.439-.724.866-1.458 1.292-2.191 3.444-5.93 4.658-7.316 8.678-7.316h102.813c4.02 0 5.233 1.386 8.677 7.315.426.733.853 1.467 1.287 2.184 10.349 17.137 22.172 43.848 32.079 75.241.063.244.138.484.225.717 6.049 19.268 11.365 40.278 15.175 61.915-28.512-26.703-66.808-43.082-108.865-43.082-42.052 0-80.345 16.375-108.855 43.073 3.68-20.87 8.751-41.149 14.53-59.837zm-130.963-22.648h.005c.006 0 .013-.001.02-.001l68.554-5.785c.001 0 .099.043.105.105l2.02 23.862-68.62 7.566-2.159-25.613c-.006-.067.069-.13.075-.134zm-25.948 332.324c-7.337 0-13.306-5.968-13.306-13.303v-20.615h51.234c11.623 0 21.078-9.467 21.078-21.104v-77.316c0-4.142-3.358-7.5-7.5-7.5s-7.5 3.358-7.5 7.5v77.316c0 3.366-2.727 6.104-6.078 6.104h-51.234v-195.692h51.234c3.352 0 6.078 2.726 6.078 6.076v71.591c0 4.142 3.358 7.5 7.5 7.5s7.5-3.358 7.5-7.5v-71.591c0-11.621-9.456-21.076-21.078-21.076h-51.234v-15.514c0-8.106 7.321-12.601 14.129-13.348l138.722-15.312c-6.692 23.299-12.199 48.561-15.364 74.133-20.276 26.734-32.326 60.031-32.326 96.094 0 55.863 28.904 105.096 72.539 133.557zm251.236 10.798c-79.612 0-144.381-64.757-144.381-144.355s64.769-144.355 144.381-144.355 144.381 64.757 144.381 144.355-64.769 144.355-144.381 144.355zm180.976-128.455c0 15.952-12.555 29.026-28.305 29.866 4.357-14.503 6.71-29.864 6.71-45.766 0-4.379-.185-8.715-.534-13.005 12.731 3.44 22.129 15.093 22.129 28.905z"/></g></g></g></svg>